<?xml version="1.0" encoding="UTF-8"?>
<svg xmlns="http://www.w3.org/2000/svg" viewBox="0 0 846.88 494.32">
  <defs>
    <style>
      .cls-1, .cls-2, .cls-3, .cls-4, .cls-5, .cls-6, .cls-7, .cls-8, .cls-9, .cls-10, .cls-11, .cls-12, .cls-13, .cls-14, .cls-15 {
        fill: none;
      }

      .cls-1, .cls-2, .cls-3, .cls-4, .cls-7, .cls-8, .cls-16, .cls-17, .cls-10, .cls-11, .cls-18, .cls-12, .cls-13, .cls-14 {
        stroke-miterlimit: 10;
      }

      .cls-1, .cls-2, .cls-3, .cls-6, .cls-7, .cls-11, .cls-18, .cls-14, .cls-15 {
        stroke: #fff;
      }

      .cls-1, .cls-2, .cls-6, .cls-15 {
        stroke-width: 28px;
      }

      .cls-1, .cls-3, .cls-8, .cls-9, .cls-15 {
        stroke-linecap: round;
      }

      .cls-3, .cls-4, .cls-18 {
        stroke-width: 6px;
      }

      .cls-4, .cls-5, .cls-8, .cls-16, .cls-9, .cls-10, .cls-13 {
        stroke: #004a66;
      }

      .cls-5, .cls-6, .cls-9, .cls-15 {
        stroke-linejoin: round;
      }

      .cls-5, .cls-8, .cls-9, .cls-10, .cls-11 {
        stroke-width: 8px;
      }

      .cls-19 {
        fill: #f8d331;
      }

      .cls-20 {
        fill: #004a66;
      }

      .cls-21, .cls-17 {
        fill: #fff;
      }

      .cls-22, .cls-18 {
        fill: #e6b222;
      }

      .cls-23 {
        fill: #318188;
      }

      .cls-24 {
        fill: #db9e28;
      }

      .cls-25 {
        fill: #9ad9e9;
      }

      .cls-26 {
        fill: #337783;
      }

      .cls-7 {
        stroke-width: 5px;
      }

      .cls-16 {
        fill: #00495f;
      }

      .cls-16, .cls-17, .cls-12, .cls-13, .cls-14 {
        stroke-width: 7px;
      }

      .cls-17 {
        stroke: #e6b222;
      }

      .cls-12 {
        stroke: #f8d331;
      }
    </style>
  </defs>
  <g id="white">
    <g>
      <rect class="cls-2" x="215.81" y="122.37" width="21.96" height="39.98" rx="7" ry="7"/>
      <rect class="cls-2" x="51.24" y="122.37" width="21.96" height="39.98" rx="7" ry="7"/>
      <circle class="cls-2" cx="92.9" cy="200.57" r="11.4"/>
      <circle class="cls-2" cx="175.12" cy="200.57" r="11.4"/>
      <ellipse class="cls-2" cx="229.94" cy="235.63" rx="26.83" ry="31.48"/>
      <ellipse class="cls-2" cx="229.86" cy="234.53" rx="10.24" ry="13.75"/>
      <ellipse class="cls-2" cx="326.46" cy="236.17" rx="26.94" ry="32.01"/>
      <ellipse class="cls-2" cx="325.86" cy="234.53" rx="10.24" ry="13.75"/>
      <path class="cls-2" d="m66.53,225.14c-.09-15.24-.19-30.47-.28-45.71-.07-1.02-.06-2.43.28-4.05.2-.92.61-2.39,1.7-4.34,1.92-3.42,3.4-3.8,4.83-6.08,1.77-2.82,1.67-5.72,1.7-7.81.1-6.15,1.66-23.92,3.97-48.61.47-2.12.95-4.24,1.42-6.37.53-1.64,1.46-3.84,3.12-6.08.53-.71,2.4-3.13,5.68-5.21,2.8-1.78,5.27-2.43,5.96-2.6,1.3-.32,2.28-.41,4.26-.58,1.59-.14,4.3-.28,7.63,0,.02,0,.02,0,.03,0,27.62,2.34,119.23.29,119.23.29,1.03-.02,3.29-.05,5.96.87,3.31,1.14,5.53,3.15,6.81,4.34,1.15,1.06,3.03,2.84,4.54,5.79,1.37,2.68,1.77,5.04,1.99,6.37.43,2.66.31,4.7.28,5.21-.22,4.47-.44,44.22-.67,100.83"/>
      <rect class="cls-2" x="60.58" y="225.14" width="142.54" height="25.72" rx="11" ry="11"/>
      <g>
        <line class="cls-15" x1="117.4" y1="190.14" x2="149.13" y2="190.14"/>
        <line class="cls-15" x1="117.4" y1="206.56" x2="149.13" y2="206.56"/>
      </g>
      <path class="cls-2" d="m134.44,56.53c43.19-.1,86.38-.19,129.57-.29,1.03-.08,2.72-.07,4.67.58,2.34.79,3.88,2.12,4.67,2.9,4.9,6.14,9.81,12.28,14.71,18.42.36.75,1.07,1.97,2.4,2.9,1.05.73,2.06,1,2.69,1.16.91.23,1.69.29,2.26.29,18.86-.1,37.72-.19,56.58-.29.1-2.13.26-3.98.42-5.51.12-1.12.24-2.12.99-2.76.69-.6,1.58-.58,1.98-.58,2.09.02,5.79,0,10.61,0,.35.05,1.37.26,2.26,1.16.83.85,1.06,1.81,1.13,2.18,9.62,37.47,19.24,74.94,28.86,112.41.28.99.61,2.56.57,4.5-.05,2.06-.09,3.95-1.41,5.37-1.34,1.43-3.25,1.59-4.1,1.6-49.04-.05-98.08-.1-147.11-.15"/>
      <path class="cls-2" d="m143.62,87.74c-3.08-3.17-6.17-6.34-9.25-9.51-.53-.28-1.38-.68-2.5-.89-1.81-.34-2.78.08-4.47-.07-1.19-.11-2.7-.26-3.79-1.23-.78-.69-1.05-1.54-1.21-2.19-.93-3.78-.78-11.89-.76-12.86,0-.4.05-1.09.46-1.85.56-1.04,1.45-1.56,1.97-1.85,1.14-.64,2.26-.79,2.88-.82h7.66"/>
      <path class="cls-2" d="m125.71,76.85c22.06-.06,44.13-.12,66.19-.19h65.89c.71.13,2.09.48,3.45,1.49,1.27.94,1.93,2.01,2.23,2.61.03,6.91.08,20,.1,26.91.1,30.02.17,60.04.2,90.06"/>
      <path class="cls-2" d="m264,186.49c-.39,2.21-.2,4.02,0,5.16.31,1.68.8,4.32,3.08,6.38.28.25,1.64,1.45,3.87,2.11,1.51.44,2.82.46,3.66.41"/>
      <path class="cls-6" d="m281.51,100.51c6.59-.06,13.18-.13,19.77-.19,6.24,24.71,12.47,49.43,18.71,74.14h-27.21c-3.76-24.65-7.51-49.3-11.27-73.96Z"/>
      <path class="cls-15" d="m317.36,100.69c13.12-.13,26.23-.25,39.35-.38,6.62,24.78,13.25,49.55,19.87,74.33h-41.67c-5.85-24.65-11.7-49.3-17.55-73.96Z"/>
      <path class="cls-2" d="m336.51,100.51c6.19,24.71,12.38,49.43,18.58,74.14"/>
      <path class="cls-2" d="m199.29,138.99c5.51,0,11.01,0,16.52,0"/>
      <path class="cls-2" d="m301.44,225.9c.43-2.91,1.04-5.25,1.53-6.86,3.19-10.48,9.08-16.41,10.28-17.59.8-.78,1.48-1.37,1.92-1.74"/>
      <path class="cls-2" d="m319.99,200.33c-2.06,2.19-4.13,4.37-6.19,6.56"/>
      <path class="cls-2" d="m309.1,200.97c-2.63,2.76-4.4,5.4-5.54,7.35-5.76,9.85-5.9,19.74-5.91,23.08-.01,4.08.53,7.59.75,8.88.48,2.83,1.11,5.21,1.69,7.05"/>
    </g>
    <line class="cls-1" x1="58.25" y1="268.5" x2="433.2" y2="268.5"/>
  </g>
  <g id="Layer_9" data-name="Layer 9">
    <g>
      <g>
        <polygon class="cls-26" points="79.84 251.88 87.32 263.2 96.87 268.51 116.58 269.71 122.02 256.57 114.14 253.19 79.84 251.88"/>
        <polygon class="cls-26" points="281.5 241.32 280.07 247.84 289.22 268.66 315.61 270.36 312.54 262.64 299.96 242.1 281.5 241.32"/>
        <ellipse class="cls-16" cx="123.07" cy="237.12" rx="20.44" ry="29.54"/>
        <ellipse class="cls-13" cx="110.19" cy="237.87" rx="20.44" ry="29.58"/>
        <ellipse class="cls-13" cx="101.89" cy="240.67" rx="24.26" ry="27.84"/>
        <path class="cls-13" d="m279.8,242.1c-.11,2.73.07,6.33,1.24,10.35,2.76,9.49,9.21,15.08,12.05,17.26"/>
        <path class="cls-13" d="m289.74,241.7c.18,2.97.78,7.12,2.61,11.65,3.66,9.06,9.95,13.88,12.72,15.75"/>
        <path class="cls-13" d="m263.44,242.56c-.62,2.78-1.58,5.99-3.09,9.42-3.08,7-7.18,12.03-10.35,15.29"/>
        <path class="cls-13" d="m269.46,243.18c-.44,3.08-1.34,7.07-3.24,11.43-2.88,6.61-6.81,11.17-9.57,13.9"/>
        <path class="cls-19" d="m347.27,79.35c.05-.77.23-2.11,1.03-3.51.39-.69,1.41-2.24,3.38-3.21.72-.35,1.36-.53,1.83-.63,4.41-.02,8.82-.05,13.23-.07.68-.02,1.22.11,1.55.21,1.5.46,2.31,1.51,2.53,1.81.33.44.52.84.63,1.12,10.27,37.62,20.54,75.24,30.81,112.86.11.5.24,1.18.28,2,.03.61.09,2.51-.7,4.74-.29.81-1.26,3.29-3.66,5.35,0,0-2.39,2.04-6.05,2.88-5.21,1.19-25.89,1.46-53.87.37,1.32.66,3.03,1.62,4.88,2.98,1.29.95,4.59,3.51,7.51,7.63.79,1.11,4.63,6.68,5.82,15.07,1.63,11.45-2.81,20.19-4.13,22.7-1.99,3.79-4.6,8.75-10.51,12.28-6.55,3.91-13.17,3.53-16.52,3.35-2.9-.16-8.64-.54-14.45-4.09-9.44-5.77-12.14-15.67-12.76-18.24-13.08-.06-26.15-.12-39.23-.19-.51,2.23-1.47,5.37-3.38,8.75-1.52,2.7-6.29,11.12-16.52,14.33-9.13,2.86-16.95-.21-19.15-1.12-9.54-3.92-13.88-11.59-15.02-13.77-45.3-.06-90.6-.12-135.9-.19-1.34-.32-3.18-.94-5.07-2.23-4.09-2.81-5.55-6.87-6.01-8.37-.13-4.28-.25-8.56-.38-12.84.06-.82.26-2.04.94-3.35,1.36-2.62,3.7-3.75,4.5-4.09.13-15.75.25-31.51.38-47.26.21-1.37.66-3.29,1.69-5.4,1.13-2.33,2.53-3.98,3.57-5.02-1.01.49-2.48,1.1-4.32,1.49-1.97.42-6.14,1.3-10.14-.74-5.04-2.57-6.36-8.02-6.57-8.93v-25.86c.16-1.21.62-3.48,2.25-5.77.33-.46,2.59-3.54,6.76-4.84,1.77-.55,3.31-.55,6.38-.56,2.43,0,3.65,0,5.07.37,1.28.34,3.86,1.28,6.38,4.28.63-5.77,1.25-11.54,1.88-17.31.37-1.79,1.06-4.23,2.44-6.88,1.03-1.98,3.43-6.47,8.63-9.68,1.5-.92,3.82-2.1,6.95-2.79,13.64-.19,27.28-.37,40.92-.56-1.44-2.11-2.88-4.22-4.32-6.33-1.38-.06-2.75-.12-4.13-.19-.64-.21-1.65-.63-2.63-1.49-1.48-1.3-2.05-2.84-2.25-3.54-.13-4.28-.25-8.56-.38-12.84-.03-.7,0-2.01.75-3.35,1.62-2.91,5.07-3.31,5.44-3.35,47.61.06,95.23.12,142.84.19.63.1,1.6.34,2.63.93,1.28.74,2.05,1.67,2.44,2.23,5.69,7.07,11.39,14.14,17.08,21.21,18.21-.19,36.42-.37,54.62-.56Z"/>
        <path class="cls-22" d="m66.69,125.19c-.31-.09-2.78-.78-4.49.7-.62.54-.93,1.17-1.08,1.57.06,10.55.12,21.1.18,31.64,0,.41.08,1.11.54,1.75.93,1.29,2.83,1.51,3.96,1.22,2.2-.55,3.18-3.43,3.78-5.42,3.74-12.47,3.15-26.24-.36-29.9-1.11-1.16-2.52-1.57-2.52-1.57Z"/>
        <path class="cls-22" d="m69.83,247.37c-1.45-1.78-2.9-3.57-4.35-5.35h134.29c-.39,2.44-.77,4.88-1.16,7.32"/>
        <path class="cls-22" d="m195.98,222.45c.1-.84.3-2.13.7-3.66,3-11.36,12.55-17.52,14.92-19.01,5.89-3.68,11.25-4.67,12.81-4.93,3.03-.5,9.75-1.59,16.33,1.83.9.47,1.62.93,2.11,1.27-.09,10.28-.19,20.55-.28,30.83-1.64-.15-4.27-.19-7.32.7-.53.16-2.48.75-4.5,1.97-5,3.01-7.33,7.94-8.17,10-8.87-6.34-17.74-12.67-26.61-19.01Z"/>
        <path class="cls-22" d="m257.21,232.59h42.8v6.34c-14.22-.05-28.44-.09-42.66-.14-.05-2.06-.09-4.13-.14-6.19Z"/>
        <path class="cls-22" d="m248.63,208.66c19.1.14,38.2.28,57.3.42l-4.5,12.39c-15.81-.05-31.63-.09-47.44-.14-1.78-4.22-3.57-8.45-5.35-12.67Z"/>
        <path class="cls-22" d="m317.33,239.06c5.26-3.71,10.51-7.41,15.77-11.12-.11-.93-.46-2.49-1.69-3.66-3.07-2.93-8.57-.48-9.01-.28-.76.35-3.19,1.58-4.79,4.36-2.78,4.84-.57,10.05-.28,10.7Z"/>
        <path class="cls-22" d="m247.41,196.41c4.94.19,9.89.38,14.83.56-.31-37.48-.63-74.96-.94-112.44-11.14.13-22.27.25-33.41.38,1.94,3.76,4.12,5.78,5.82,6.95,1.09.75,3.07,1.88,5.07,3.75,1.11,1.04,2.25,2.25,2.25,2.25s.98,1.04,1.69,1.88c2.65,3.13,1.31,10.32,1.31,10.32-.94,5.08-.15,30.09,3.38,86.34Z"/>
        <path class="cls-22" d="m283.45,110.25c5.76-.06,11.51-.13,17.27-.19.38,2,.75,4,1.13,6.01-6.57.13-13.14.25-19.71.38.44-2.06.88-4.13,1.31-6.19Z"/>
        <path class="cls-22" d="m321.36,111c5.63-.06,11.26-.13,16.89-.19.44,1.94.88,3.88,1.31,5.82-6.01.06-12.01.13-18.02.19-.06-1.94-.13-3.88-.19-5.82Z"/>
        <path class="cls-22" d="m341.26,110.06h14.64c.56,2,1.13,4,1.69,6.01-5.01.13-10.01.25-15.02.38-.44-2.13-.88-4.25-1.31-6.38Z"/>
        <path class="cls-22" d="m317.8,178.95c.65-.54,1.56-1.45,2.25-2.82.33-.65.9-1.79.94-3.38.02-1.05-.19-1.9-.38-2.44l-13.33-65.7c-.22-.91-.74-2.49-2.06-3.94-.55-.6-2.13-2.34-4.69-2.63-1.03-.12-1.89.04-2.44.19.27.47.67,1.18,1.13,2.06,0,0,1.79,3.47,3.19,7.7,1.18,3.55,2.74,10.23,3.57,18.96,3.32,15.89,6.63,31.78,9.95,47.68.63,1.44,1.25,2.88,1.88,4.32Z"/>
        <path class="cls-22" d="m353.84,98.05c.44-.25,1.33-.67,2.44-.56.71.07,1.5.35,2.63,1.31,1.87,1.61,2.82,3.52,3,3.94,1.33,3.02,8.41,30.42,17.46,67.95.38,1.14.51,2.12.56,2.82.1,1.39.21,2.96-.75,4.32-.48.68-1.08,1.08-1.5,1.31-.38-1.94-.75-3.88-1.13-5.82-7.57-25.09-15.14-50.18-22.71-75.27Z"/>
        <path class="cls-22" d="m269.37,195.28c1.69-1.81,3.38-3.63,5.07-5.44,40.23-.13,80.46-.25,120.7-.38.13,2.88.25,5.76.38,8.63-42.36.13-84.72.25-127.08.38.31-1.06.63-2.13.94-3.19Z"/>
        <path class="cls-22" d="m213.01,153.89c-.6.88-1.42,2.31-1.83,4.22-.83,3.88.59,7.02,1.13,8.17,2.22,4.72,6.42,6.71,8.02,7.46,1.05.5,4.64,2.07,9.43,1.69,1.71-.14,5.37-.47,8.87-3.1,1.63-1.22,2.71-2.56,3.38-3.52-.05-3.71-.09-7.41-.14-11.12-1.47,1.58-3.96,3.78-7.6,5.21-1.96.77-5.09,2-9.01,1.27-3.65-.68-6-2.68-7.32-3.8-2.74-2.33-4.2-4.92-4.93-6.48Z"/>
        <path class="cls-24" d="m137.13,78.97c3.38,2.63,6.76,5.26,10.14,7.88,38.2.09,76.4.19,114.59.28.19-2.82.38-5.63.56-8.45-41.76.09-83.53.19-125.29.28Z"/>
        <path class="cls-24" d="m283.26,110.79h17.74c-.38-2.35-.75-4.69-1.13-7.04-5.26-.09-10.51-.19-15.77-.28l-.84,7.32Z"/>
        <path class="cls-24" d="m319.3,104.03c.56,2.25,1.13,4.5,1.69,6.76h17.46c-.75-2.72-1.5-5.44-2.25-8.17-5.63.47-11.26.94-16.89,1.41Z"/>
        <path class="cls-24" d="m339.57,103.19c.56,2.47,1.13,4.94,1.69,7.41h14.27c-.41-2.22-.81-4.44-1.22-6.66l-14.73-.75Z"/>
        <path class="cls-24" d="m247.78,202.86v7.6c19.01.05,38.01.09,57.02.14.52-2.35,1.03-4.69,1.55-7.04-19.52-.23-39.04-.47-58.56-.7Z"/>
      </g>
      <path class="cls-11" d="m69.99,223.34c-.32-5.55-.6-11.2-.82-16.93-.74-18.98-.21-18.48-.59-23.4-.03-.43-.18-2.2,0-4.54.16-2.14.31-4.03,1.25-6.11.49-1.07,1.54-2.98,3.79-4.77.96.73,2.19,1.54,3.7,2.27,1.19.57,2.31.97,3.28,1.25.83.1,1.66.21,2.5.31,34.8-.05,69.6-.1,104.4-.16.67-.05,1.59-.16,2.65-.47,2.89-.84,4.7-2.49,5.46-3.21,2.29-2.14,3.28-4.46,3.59-5.25.66-1.69.87-3.19.94-4.23,1.09-14.66,2.18-29.33,3.28-43.99.14-.64.29-1.63.16-2.82-.22-1.98-1.1-3.34-1.58-4.07-1.02-1.55-2.21-2.46-2.79-2.87-1.47-1.02-2.83-1.39-3.9-1.67-1.2-.32-2.23-.43-2.96-.47-35.47.26-70.95.52-106.42.78"/>
      <rect class="cls-11" x="218.25" y="125.07" width="21.96" height="39.98" rx="7" ry="7"/>
      <path class="cls-17" d="m215.56,166.25c9.57.46,19.13.92,28.7,1.38"/>
      <rect class="cls-11" x="52.86" y="124.17" width="21.96" height="39.98" rx="7" ry="7"/>
      <path class="cls-11" d="m80.75,117.66c-.39-3.41-.43-8.57,1.67-14.19,1.24-3.32,2.73-7.29,6.68-10.01,3.35-2.32,7.37-2.97,9.6-3.34,1.93-.32,3.55-.38,4.59-.42,4.11-.15,7.19.31,7.93.42,1.73.24,4.15.44,28.79.83,18.38.29,27.57.44,31.71.42,12.09-.06,22.63-.39,37.14-.83,4.17-.13,8.36,0,12.52-.42,2.51-.25,4.77-.57,7.93,0,1.6.29,4.07.76,6.68,2.5,3.02,2.02,4.49,4.6,5.42,6.26,1.39,2.48,1.89,4.55,2.5,7.09.69,2.83.9,5.06,1.25,8.76.23,2.42.35,4.43.42,5.84"/>
      <path class="cls-11" d="m123.31,59.66c47.43-.28,94.86-.56,142.29-.83.95.04,2.7.24,4.59,1.25,2.03,1.08,3.21,2.55,3.76,3.34,6.53,7.68,10.02,12.28,11.68,15.02.49.81,1.47,2.38,3.34,3.76,1.69,1.25,3.4,1.81,4.59,2.09h59.67c.28,0,.56,0,.84,0,.24-2.68.47-5.36.71-8.04h11.18"/>
      <path class="cls-11" d="m293.46,172.87c.02,1.02.21,3.18,1.76,4.4.88.69,1.81.77,4.84.73,3.77-.05,6.73-.22,8.65-.29,2.63-.1,5.87,0,5.87,0,3.13.02,4.32.06,5-.77.9-1.09.32-2.98-.04-3.93"/>
      <path class="cls-11" d="m335.36,174.98c.17.34.51.9,1.13,1.38.96.75,1.98.86,2.38.88,12.08.04,24.15.08,36.23.13.19,0,.94.26,1.38-.13.5-.44.33-1.46.1-2.26"/>
      <ellipse class="cls-23" cx="229.94" cy="234.87" rx="26.83" ry="31.48"/>
      <ellipse class="cls-23" cx="326.46" cy="235.76" rx="26.83" ry="31.48"/>
      <ellipse class="cls-19" cx="230.15" cy="235.99" rx="9.62" ry="14.01"/>
      <ellipse class="cls-19" cx="325.86" cy="234.61" rx="9.62" ry="14.01"/>
      <polygon class="cls-26" points="181.28 250.47 181.8 258.12 188.47 265.71 203.19 271.56 217.29 264.68 211.39 255.25 208.58 247.48 195.27 250.47 181.28 250.47"/>
      <path class="cls-14" d="m72.09,252.6c-1.05-.48-2.57-1.34-4.07-2.79-1.75-1.69-2.61-3.36-2.79-3.72-1.21-2.41-1.4-4.68-1.39-6.04.04-1.67.08-3.33.12-5,.19-.78.58-1.9,1.39-3.02.26-.36,1.27-1.7,3.14-2.67,1.11-.58,2.12-.82,2.79-.93,21.08-.19,42.16-.39,63.24-.58,21.78.04,43.55.08,65.33.12"/>
      <path class="cls-7" d="m83.91,207.9c-.14-1.48-.23-3.59.02-6.11.28-2.83.42-4.25,1.37-5.72,1.82-2.85,5.04-3.63,5.97-3.86,1.01-.24,3.34-.77,5.85.25,1.7.69,2.74,1.8,3.86,2.99,1.28,1.36,2.11,2.68,2.61,3.61"/>
      <path class="cls-7" d="m167.19,208.13c-.6-1.31-2.05-4.93-.87-9.08.34-1.19.98-3.45,3.11-5.1,2.07-1.6,4.32-1.69,5.48-1.74,3.51-.15,6.06,1.42,6.97,1.99,2.51,1.59,3.86,3.66,4.48,4.79"/>
      <path class="cls-17" d="m242.33,155.61c-1.41,3.55-2.82,7.09-4.23,10.64"/>
      <path class="cls-12" d="m241.39,120.58c-1.41,3.55-2.82,7.09-4.23,10.64"/>
      <path class="cls-10" d="m181.32,251.19c.4,2.29,1.28,5.74,3.35,9.45,2.3,4.11,5.08,6.75,6.9,8.23"/>
      <path class="cls-10" d="m194.25,251.82c1.25,3.98,4.22,11.06,11.16,15.45,1.01.64,2.01,1.17,3,1.61"/>
      <path class="cls-14" d="m203.53,240.36c-.06-4.13.48-10.63,3.91-17.43,1.2-2.38,3.23-6.29,7.47-9.86,2.08-1.75,6.35-5.34,12.85-5.98,7.52-.73,13.14,2.98,14.97,4.18,2.86,1.89,4.87,4.09,6.85,6.28,2.41,2.65,4.16,5.12,5.36,6.98"/>
      <path class="cls-14" d="m305.78,257.01c-2.67-6.37-3.52-11.88-3.81-15.5-.41-5.15-1.08-13.42,3.57-21.71,1.23-2.19,3.68-6.44,8.8-9.62,6.12-3.81,12.1-3.62,13.19-3.57,4.14.18,7.13,1.52,9.9,2.75,4.42,1.97,7.61,4.43,9.59,6.19"/>
      <polygon class="cls-22" points="222 238.34 237.33 225.48 232.14 221.47 226.47 222.85 222 228.55 222 238.34"/>
      <polygon class="cls-22" points="317.93 239.48 333.26 226.63 328.06 222.61 322.4 224 317.93 229.7 317.93 239.48"/>
      <circle class="cls-20" cx="230.15" cy="179.14" r="6.46"/>
      <path class="cls-18" d="m66.48,217.76c-3.58,5.69-7.15,11.39-10.73,17.08"/>
      <g>
        <rect class="cls-10" x="215.81" y="122.71" width="21.96" height="39.98" rx="7" ry="7"/>
        <rect class="cls-10" x="51.24" y="122.71" width="21.96" height="39.98" rx="7" ry="7"/>
        <circle class="cls-10" cx="92.9" cy="200.9" r="11.4"/>
        <circle class="cls-10" cx="175.12" cy="200.9" r="11.4"/>
        <ellipse class="cls-10" cx="229.94" cy="235.97" rx="26.83" ry="31.48"/>
        <ellipse class="cls-10" cx="229.86" cy="234.87" rx="10.24" ry="13.75"/>
        <ellipse class="cls-10" cx="326.46" cy="236.5" rx="26.94" ry="32.01"/>
        <ellipse class="cls-10" cx="325.86" cy="234.87" rx="10.24" ry="13.75"/>
        <path class="cls-10" d="m66.53,225.48c-.09-15.24-.19-30.47-.28-45.71-.07-1.02-.06-2.43.28-4.05.2-.92.61-2.39,1.7-4.34,1.92-3.42,3.4-3.8,4.83-6.08,1.77-2.82,1.67-5.72,1.7-7.81.1-6.15,1.66-23.92,3.97-48.61.47-2.12.95-4.24,1.42-6.37.53-1.64,1.46-3.84,3.12-6.08.53-.71,2.4-3.13,5.68-5.21,2.8-1.78,5.27-2.43,5.96-2.6,1.3-.32,2.28-.41,4.26-.58,1.59-.14,4.3-.28,7.63,0,.02,0,.02,0,.03,0,27.62,2.34,119.23.29,119.23.29,1.03-.02,3.29-.05,5.96.87,3.31,1.14,5.53,3.15,6.81,4.34,1.15,1.06,3.03,2.84,4.54,5.79,1.37,2.68,1.77,5.04,1.99,6.37.43,2.66.31,4.7.28,5.21-.22,4.47-.44,44.22-.67,100.83"/>
        <rect class="cls-10" x="60.58" y="225.48" width="142.54" height="25.72" rx="11" ry="11"/>
        <g>
          <line class="cls-9" x1="117.4" y1="190.47" x2="149.13" y2="190.47"/>
          <line class="cls-9" x1="117.4" y1="206.89" x2="149.13" y2="206.89"/>
        </g>
        <path class="cls-10" d="m134.44,56.87c43.19-.1,86.38-.19,129.57-.29,1.03-.08,2.72-.07,4.67.58,2.34.79,3.88,2.12,4.67,2.9,4.9,6.14,9.81,12.28,14.71,18.42.36.75,1.07,1.97,2.4,2.9,1.05.73,2.06,1,2.69,1.16.91.23,1.69.29,2.26.29,18.86-.1,37.72-.19,56.58-.29.1-2.13.26-3.98.42-5.51.12-1.12.24-2.12.99-2.76.69-.6,1.58-.58,1.98-.58,2.09.02,5.79,0,10.61,0,.35.05,1.37.26,2.26,1.16.83.85,1.06,1.81,1.13,2.18,9.62,37.47,19.24,74.94,28.86,112.41.28.99.61,2.56.57,4.5-.05,2.06-.09,3.95-1.41,5.37-1.34,1.43-3.25,1.59-4.1,1.6-49.04-.05-98.08-.1-147.11-.15"/>
        <path class="cls-10" d="m143.62,88.08c-3.08-3.17-6.17-6.34-9.25-9.51-.53-.28-1.38-.68-2.5-.89-1.81-.34-2.78.08-4.47-.07-1.19-.11-2.7-.26-3.79-1.23-.78-.69-1.05-1.54-1.21-2.19-.93-3.78-.78-11.89-.76-12.86,0-.4.05-1.09.46-1.85.56-1.04,1.45-1.56,1.97-1.85,1.14-.64,2.26-.79,2.88-.82h7.66"/>
        <path class="cls-10" d="m125.71,77.19c22.06-.06,44.13-.12,66.19-.19h65.89c.71.13,2.09.48,3.45,1.49,1.27.94,1.93,2.01,2.23,2.61.03,6.91.08,20,.1,26.91.1,30.02.17,60.04.2,90.06"/>
        <path class="cls-13" d="m264,186.82c-.39,2.21-.2,4.02,0,5.16.31,1.68.8,4.32,3.08,6.38.28.25,1.64,1.45,3.87,2.11,1.51.44,2.82.46,3.66.41"/>
        <path class="cls-5" d="m281.51,100.84c6.59-.06,13.18-.13,19.77-.19,6.24,24.71,12.47,49.43,18.71,74.14h-27.21c-3.76-24.65-7.51-49.3-11.27-73.96Z"/>
        <path class="cls-9" d="m317.36,101.03c13.12-.13,26.23-.25,39.35-.38,6.62,24.78,13.25,49.55,19.87,74.33h-41.67c-5.85-24.65-11.7-49.3-17.55-73.96Z"/>
        <path class="cls-10" d="m336.51,100.84c6.19,24.71,12.38,49.43,18.58,74.14"/>
        <path class="cls-10" d="m199.29,139.32c5.51,0,11.01,0,16.52,0"/>
        <path class="cls-13" d="m301.44,226.24c.43-2.91,1.04-5.25,1.53-6.86,3.19-10.48,9.08-16.41,10.28-17.59.8-.78,1.48-1.37,1.92-1.74"/>
        <path class="cls-10" d="m319.99,200.67c-2.06,2.19-4.13,4.37-6.19,6.56"/>
        <path class="cls-4" d="m309.1,201.3c-2.63,2.76-4.4,5.4-5.54,7.35-5.76,9.85-5.9,19.74-5.91,23.08-.01,4.08.53,7.59.75,8.88.48,2.83,1.11,5.21,1.69,7.05"/>
      </g>
      <line class="cls-4" x1="257.21" y1="247.2" x2="299.53" y2="247.2"/>
      <line class="cls-4" x1="250.62" y1="260.35" x2="245.69" y2="269.04"/>
      <path class="cls-4" d="m273.42,248.96c-.29,1.91-.77,4.05-1.52,6.34-1.72,5.22-4.24,9.19-6.34,11.92"/>
      <path class="cls-4" d="m270.12,267.47c1.25-1.65,2.59-3.68,3.8-6.08,2.29-4.54,3.32-8.76,3.8-11.92"/>
      <path class="cls-25" d="m82.07,113.82c.54-3.26,3.68-5.92,6.98-5.92h107.4c3.3,0,5.76,2.69,5.46,5.98l-4.3,47.74c-.3,3.29-3.24,5.98-6.54,5.98h-111.88c-3.3,0-5.56-2.66-5.02-5.92l7.9-47.85Z"/>
      <path class="cls-10" d="m78.94,114.55c.58-5.47,5.55-9.95,11.05-9.96l102.22-.2c5.5-.01,9.63,4.47,9.18,9.95l-3.67,44.57c-.45,5.48-5.32,9.97-10.82,9.97h-103.7c-5.5,0-9.53-4.48-8.95-9.94l4.69-44.38Z"/>
      <line class="cls-3" x1="103.12" y1="120.71" x2="98.74" y2="155.84"/>
      <line class="cls-3" x1="132.17" y1="153.89" x2="180.05" y2="120.58"/>
      <circle class="cls-21" cx="187.09" cy="136.62" r="3.07"/>
      <line class="cls-3" x1="157.38" y1="157.41" x2="175.12" y2="145.06"/>
    </g>
    <line class="cls-8" x1="58.25" y1="268.51" x2="433.2" y2="268.51"/>
  </g>
  <g id="trace">
    <path class="cls-21" d="m416.85,100.79c-.33.42-.76,1-1.24,1.7-.73,1.08-1.58,2.47-2.48,4.35-.43.89-1.19,2.58-2.67,7.13-.85,2.63-1.51,4.87-2.02,6.71-.95,3.4-1.7,6.43-2.29,8.96-.7,3.01-1.74,7.56-2.67,13.57,0,0-.51,3.34-.86,6.48-.82,7.37,1.79,27.75,8.11,54.36.22.29.54.69.94,1.16,1.85,2.19,3.54,3.6,3.99,3.97,2.29,1.89,4.34,2.99,5.04,3.35,1.32.68,3.73,1.79,6.95,2.48,1.16.25,3.26.62,5.94.63.46,0,3.85-.02,7.38-.96,1.5-.4,2.85-.92,3.04-.99.46-.18,1.07-.43,1.77-.75.47-.22,1.34-.64,2.39-1.25.82-.48,1.41-.87,1.89-1.2,1.32-.89,2.27-1.63,2.47-1.78.56-.44,2.06-1.65,3.81-3.46.65-.67,1.17-1.26,1.55-1.69.14.22.34.52.59.88.17.24.92,1.31,2.19,2.67.43.46,1.18,1.27,2.28,2.21,1.59,1.36,2.97,2.21,3.46,2.5.39.23,2.03,1.2,4.4,2.06.53.19,2.41.86,4.99,1.31,1.86.32,3.29.39,4.3.44,2.52.12,4.43-.04,6-.17,2.24-.19,4.18-.48,5.72-.77,3.28-.62,5.67-1.37,6.24-1.55.7-.22,2.5-.81,4.75-1.78.91-.39,2.6-1.15,4.64-2.28,1.74-.96,3.9-2.28,6.25-4.05.15.17.36.39.61.64.79.82,1.43,1.41,1.64,1.6.55.51,1.34,1.23,2.45,2.04.21.15.97.71,2.04,1.36,2.37,1.44,4.56,2.3,5.48,2.65,2.95,1.1,5.32,1.52,6.66,1.75.76.13,3,.49,5.96.55,3.03.07,5.34-.21,6.16-.31.8-.1,3.12-.43,6.05-1.27,2.91-.83,5.01-1.77,6.31-2.35.61-.28,3.39-1.54,6.84-3.72,1.46-.92,2.66-1.76,3.57-2.43.21.21.5.48.85.79.3.27,1.04.92,2.12,1.75.77.59,1.98,1.5,3.68,2.5.34.2,1.46.85,3.02,1.56,1.52.7,3.63,1.55,6.29,2.24-1.11,1.01-2.42,2.23-3.88,3.62-1.08,1.03-2.4,2.28-4.08,3.96-1.96,1.96-3.41,3.49-3.78,3.88-1.65,1.75-3.85,4.09-6.47,7.27-.82,1-2.17,2.64-3.82,4.9-2.82,3.85-4.74,7.05-5.58,8.49-1.25,2.14-3.04,5.22-4.88,9.55-2.17,5.09-3.19,9.02-3.42,9.9-.78,3.07-1.13,5.4-1.21,5.94-.66,4.56-.56,8.02-.51,9.13.09,2.15.31,3.74.39,4.32.15,1.02.39,2.68,1,4.8.22.75.65,2.15,1.37,3.85.88,2.07,1.74,3.55,2.06,4.08.27.45.94,1.55,1.95,2.88.95,1.26,1.81,2.21,2.38,2.82.44.46,1.34,1.39,2.59,2.46,1.16.99,2.11,1.67,2.44,1.9.33.24,1.29.9,2.62,1.66,1.66.95,3.02,1.54,3.56,1.77.46.19,2.23.94,4.69,1.58.74.19,2.44.62,4.68.92.59.08,2.8.36,5.74.33,2.67-.02,4.69-.28,5.3-.36,1.07-.15,2.95-.44,5.25-1.08,1.1-.3,2.96-.86,5.17-1.8.93-.39,2.49-1.1,4.35-2.15.59-.33,2.21-1.27,4.19-2.72.44-.32,2.02-1.48,3.94-3.23.54-.49,2.52-2.3,4.84-5.01,1.53-1.78,2.57-3.22,3.36-4.3.54-.74,1.74-2.43,3.17-4.72,1.8-2.9,2.97-5.17,4.08-7.35,1.65-3.23,2.76-5.73,3.53-7.48,1.45-3.29,2.44-5.82,3.08-7.46.39-1.01,1.67-4.31,3.18-8.73,1.26-3.7,2.12-6.52,2.66-8.3.28-.91,1.27-4.19,2.46-8.6,1.16-4.28,1.94-7.53,2.54-10.07,1.16-4.86,1.95-8.52,2.17-9.55.7-3.31,1.27-6.2,1.71-8.55.98-.65,2.38-1.59,4.08-2.73,1.89-1.27,3.2-2.14,4.77-3.21,1.28-.87,1.32-.91,4.49-3.08,3.55-2.44,4.21-2.88,7.03-4.82,1.36-.94,2.47-1.7,3.18-2.19.09.12.23.3.39.51.34.43,1.17,1.46,2.72,3.04.63.64,1.65,1.67,3.11,2.94,2.15,1.86,3.95,3.08,4.58,3.5.4.27,1.7,1.13,3.52,2.12,1.31.72,3.74,1.97,6.98,3.15.67.24,3.08,1.11,6.38,1.87,3.83.89,6.82,1.17,8.66,1.34,4.12.37,7.33.3,8.68.25,2-.07,5.27-.21,9.49-1.03,4.18-.82,7.28-1.92,8.47-2.37,1.55-.58,3.65-1.45,6.05-2.7,2.1-1.11,5.26-2.95,8.72-5.75,1.52-1.24,4.27-3.61,7.19-7.08,1.49-1.77,3.16-3.77,4.85-6.79,2.31-4.12,3.25-7.6,3.49-8.55.86-3.36.98-6.02,1.05-7.56.07-1.82.16-4.23-.45-7.3-.18-.93-.44-2.17-1.05-3.73-.42-1.09-1.25-3.15-3.1-5.28-1.42-1.63-2.79-2.56-3.18-2.82-.77-.51-2.63-1.63-5.29-2.18-3.2-.66-5.86-.13-7.3.26.23-.23.52-.55.86-.93.61-.7,1.02-1.26,1.31-1.66.68-.93,1.17-1.72,1.44-2.17.67-1.1,1.1-1.98,1.42-2.66.21-.44.57-1.17.94-2.09.65-1.58,1-2.84,1.26-3.79.58-2.11.91-3.91,1.09-5.14.14-.93.36-2.63.44-4.78.02-.51.07-2.26-.07-4.56-.07-1.11-.16-2.49-.47-4.3-.17-.98-.51-2.78-1.21-4.98-.82-2.59-1.72-4.44-1.95-4.91-.5-1.02-1.44-2.79-2.89-4.81-2.02-2.81-3.98-4.62-4.56-5.14-1.03-.93-3.51-3.04-7.22-4.88-3.37-1.67-6.18-2.33-7.76-2.69-3.3-.75-5.87-.88-7.51-.94-1.36-.06-5.29-.17-10.33.7-1.52.26-5.46,1.01-10.29,2.89-1.55.6-5.94,2.4-11.03,5.84-1.74,1.17-5.85,4.09-10.26,8.81-.72.77-4.06,4.39-7.53,9.88-2.92,4.64-4.72,8.69-5.71,11.15-.48,1.18-1.85,4.69-3.04,9.43-.39,1.56-1.2,5.02-1.74,9.56-.26,2.22-.4,4.14-.47,5.62-1.06.74-2.11,1.48-3.17,2.22.06-.35.14-.86.25-1.48.33-1.95.55-3.18.71-4.13.18-1.05.38-2.29.78-4.77.45-2.8.48-3,.99-6.18.47-2.93.52-3.2.87-5.36.34-2.13.56-3.5.86-5.39.03-.18.35-2.28.76-5.06.22-1.55.29-2.02.35-2.54.15-1.22.29-2.45.35-4.01.03-.87.07-2-.03-3.49-.09-1.29-.19-2.68-.68-4.43-.51-1.83-1.18-3.11-1.34-3.4-1-1.88-2.13-3.08-2.47-3.43-.34-.35-1.48-1.49-3.39-2.59-3.99-2.29-8.09-2.49-11.36-2.62-1.64-.06-3,0-3.91.06-.11-.19-.27-.45-.48-.77-.31-.47-1.69-2.48-4.07-4.13,0,0-4.09-2.83-10.48-2.85-.35,0-.8,0-.8,0-.82,0-1.52.01-1.79.01-1.67.03-3.5.2-3.58.2-.35.03-1.62.16-3.36.44-1.09.18-3.24.56-5.93,1.28-2.8.75-4.9,1.54-5.71,1.85-.5.19-2.68,1.03-5.46,2.43-2.57,1.29-4.5,2.46-5.48,3.08-2.4,1.51-4.1,2.81-5.36,3.78-2.87,2.2-4.9,4.06-5.46,4.58-1.64,1.51-4.28,4.08-7.15,7.57-1.67,2.04-2.85,3.69-3.52,4.62-1.89,2.65-3.19,4.79-3.71,5.65-.93,1.55-2.26,3.89-3.68,6.83-.63,1.32-1.64,3.5-2.72,6.29-1.23,3.18-1.96,5.65-2.15,6.29-.22.76-.96,3.32-1.66,6.74-.6,2.98-.91,5.33-1.05,6.44-.22,1.78-.34,3.32-.42,4.55-1.64,1.61-3.28,3.22-4.93,4.82-.02-.44-.03-1.06-.01-1.8.02-1.03.08-1.94.22-3.26.12-1.18.27-2.4.52-4.19.11-.77.36-2.47.74-4.77.4-2.38.74-4.17.97-5.42.37-1.95.66-3.39.97-4.91.08-.41.3-1.48,1.1-5.29.75-3.54.69-3.27.93-4.4.19-.91.83-4,1.58-8.01.49-2.61.8-4.26,1.19-6.63,0,0,.52-3.18,1.02-7.64.04-.34.11-.97.15-1.8.03-.56.07-1.49,0-2.6-.11-1.82-.47-3.19-.55-3.5-.51-1.9-1.23-3.27-1.51-3.76-1.35-2.42-3.12-4.01-4.4-4.97.15-.04.38-.1.65-.17.34-.1,1.77-.51,3.65-1.42,2.99-1.45,5.28-3.21,5.28-3.21,2.53-1.95,4.14-3.89,4.85-4.79,1.09-1.39,3.06-4.18,4.41-8.19,1.02-3.04,1.24-5.49,1.37-6.96.12-1.45.32-3.93-.18-7.12-.17-1.07-.48-2.96-1.39-5.27-1.81-4.58-4.58-7.3-5.36-8.04-.73-.69-1.32-1.14-1.83-1.53-3.06-2.36-5.82-3.51-6.94-3.95-.27-.1-1.41-.54-2.97-.96-2.31-.62-4.11-.81-5.57-.96-1.42-.14-3.28-.33-5.75-.21-.76.04-2.81.16-5.43.71-1.19.25-3.45.73-6.14,1.85-4.78,1.99-7.88,4.74-8.93,5.71-2.91,2.71-4.52,5.31-4.93,6-1.07,1.78-2.46,4.57-3.22,8.22-.74,3.57-.55,6.38-.43,7.97.11,1.52.31,3.93,1.32,6.89,1.34,3.92,3.31,6.51,3.93,7.28,2.49,3.14,5.27,4.98,7.12,6-.48.2-1.1.47-1.8.84-.82.43-2.13,1.2-3.52,2.35-2.29,1.9-3.58,3.87-4.29,4.95-1.15,1.77-1.82,3.31-2.24,4.29-.22.51-.56,1.35-1.14,3.1-.54,1.65-.99,3.15-1.85,6.39-.71,2.66-1.18,4.45-1.8,7.03-.3,1.23-.8,3.37-1.37,6.07-.16.75-.8,3.78-1.53,7.88-.13.7-.56,3.16-1.07,6.44-.33,2.1-.75,4.79-1.16,8.19-.31,2.56-.67,5.87-.96,9.75-.46.5-1.1,1.18-1.87,1.99-.81.85-1.65,1.72-2.76,2.83-.55.54-1.28,1.26-2.17,2.1.14-.99.34-2.3.59-3.83.36-2.19.66-3.85.89-5.07.4-2.15.72-3.74,1-5.18.61-3.03,1.1-5.33,1.53-7.35.54-2.51.54-2.48,1.44-6.62.45-2.07.76-3.54,1.39-6.48.91-4.23,1.36-6.37,1.6-7.53.46-2.26.76-3.91,1.37-7.21.36-1.97.64-3.52.91-5.5.17-1.25.32-2.54.41-4.11.06-.99.08-1.49.07-2.12-.02-.95-.09-3.19-1.16-5.78-.79-1.91-1.79-3.17-2.1-3.56-.42-.52-1.86-2.22-4.34-3.56-.2-.11-.96-.52-2.03-.91-1.78-.66-3.19-.84-4.91-1.05-1.82-.22-3.22-.24-4.11-.25-1.71-.02-3.03.07-3.56.11-.97.08-2.87.23-4.93.71-1.33.31-4.04.96-6.98,2.78-3.59,2.22-5.57,4.97-6.41,6.16-1.98,2.8-2.97,5.54-3.47,6.96-.4,1.12-.77,2.38-.91,2.88-.61,2.07-.73,2.81-1.48,5.46-.09.32-.28.96-.66,2.24-.24.79-.66,2.2-1.16,3.88-.05.15-.65,2.14-1.05,3.42-1.22,3.91-2.4,7.2-2.67,7.94-.32.87-1.36,3.74-2.88,7.46-.93,2.28-1.78,4.25-2.49,5.84.33-1.95.76-4.37,1.28-7.14.55-2.92.9-4.77,1.46-7.35.66-3.02,1.28-5.49,1.71-7.21.63-2.5.61-2.29,1.16-4.52q.24-.96,1.67-7.35c.42-1.87.7-3.1.8-4.86.04-.6.08-1.47,0-2.63-.2-2.81-1.01-4.79-1.19-5.23-.61-1.47-1.31-2.49-1.59-2.9-.98-1.38-2-2.31-2.64-2.84-1.69-1.39-3.27-2.04-4.13-2.39-1.15-.46-2.17-.72-2.53-.8-.62-.15-1.13-.23-1.38-.27,0,0-.82-.14-1.73-.22-2.7-.25-5.54-.11-5.54-.11-2.32.11-4.63.22-7.57.95-1.37.34-3.37.84-5.68,2-1.74.87-4.46,2.53-7.12,5.56Z"/>
  </g>
  <g id="Layer_15" data-name="Layer 15">
    <g>
      <polygon class="cls-21" points="714.33 144.74 707.38 142.39 702.75 145.48 702.26 154 705.92 171.04 713.47 176.03 724.69 175 735.9 161.93 734.19 154.58 722.74 150.91 714.33 144.74"/>
      <g>
        <path class="cls-20" d="m417.62,196.51c-4.17-6.07-6.25-13.64-6.25-22.71,0-10.97.73-21.03,2.2-30.17,1.46-9.14,3.87-18.84,7.24-29.08,1.46-4.39,3.51-7.53,6.14-9.44,2.63-1.9,6.8-2.85,12.51-2.85,3.22,0,5.45.51,6.69,1.54,1.24,1.03,1.87,2.56,1.87,4.61,0,1.17-.81,5.12-2.41,11.85-1.46,5.41-2.63,10.31-3.51,14.7-2.93,15.36-4.39,25.6-4.39,30.72,0,3.07.36,5.23,1.1,6.47.73,1.24,1.9,1.87,3.51,1.87,2.19,0,4.94-2.19,8.23-6.58,3.29-4.39,6.8-11.05,10.53-19.97,3.73-8.92,7.35-19.9,10.86-32.92,1.17-4.39,2.96-7.53,5.38-9.44,2.41-1.9,6.04-2.85,10.86-2.85,3.36,0,5.71.41,7.02,1.21,1.32.81,1.98,2.3,1.98,4.5,0,3.66-1.83,13.68-5.49,30.07-4.1,18.73-6.14,30.29-6.14,34.67,0,2.78.58,4.94,1.76,6.47,1.17,1.54,2.71,2.3,4.61,2.3,2.92,0,6.4-1.79,10.42-5.38,4.02-3.58,9.4-9.4,16.13-17.45,1.76-2.05,3.73-3.07,5.93-3.07,1.9,0,3.4.88,4.5,2.63,1.1,1.76,1.65,4.17,1.65,7.24,0,5.85-1.39,10.39-4.17,13.61-6.29,7.75-13.06,14.12-20.3,19.09-7.24,4.98-15.47,7.46-24.69,7.46-7.02,0-12.18-2.71-15.47-8.12-3.29-5.41-4.94-13.02-4.94-22.82-2.49,9.95-6.22,17.59-11.19,22.93-4.98,5.34-10.31,8.01-16.02,8.01-6.58,0-11.96-3.04-16.13-9.11Z"/>
        <path class="cls-20" d="m519.01,195.52c-4.32-6.73-6.47-15.65-6.47-26.77,0-6.58.84-15.03,2.52-25.35,1.68-10.31,3.84-19.93,6.47-28.86,1.32-4.68,3.07-7.9,5.27-9.66,2.2-1.76,5.71-2.63,10.53-2.63,7.46,0,11.19,2.49,11.19,7.46,0,3.66-1.39,12.15-4.17,25.46-3.51,16.1-5.27,26.99-5.27,32.7,0,4.39.58,7.76,1.76,10.1,1.17,2.34,3.14,3.51,5.93,3.51,2.63,0,5.93-1.83,9.88-5.49,3.95-3.66,9.22-9.44,15.8-17.34,1.76-2.05,3.73-3.07,5.93-3.07,1.9,0,3.4.88,4.5,2.63,1.1,1.76,1.65,4.17,1.65,7.24,0,5.85-1.39,10.39-4.17,13.61-14.48,17.7-28.02,26.55-40.6,26.55-9.51,0-16.43-3.36-20.74-10.1Zm8.67-112.03c-3.07-2.85-4.61-6.84-4.61-11.96s2.01-9.4,6.04-12.84c4.02-3.44,9.03-5.16,15.03-5.16,5.41,0,9.8,1.32,13.17,3.95,3.36,2.63,5.05,6.36,5.05,11.19,0,5.85-1.9,10.5-5.71,13.94-3.81,3.44-8.85,5.16-15.14,5.16s-10.75-1.43-13.83-4.28Z"/>
        <path class="cls-20" d="m683.6,158.76c1.1,1.83,1.65,4.14,1.65,6.91,0,3.37-.51,6-1.54,7.9-1.02,1.9-2.63,3.59-4.83,5.05-12.59,8.49-21.8,14.78-27.65,18.87l-14.05,9.44c-5.56,30.28-12.84,54.1-21.84,71.43-9,17.34-20.45,26.01-34.34,26.01-7.46,0-13.53-2.3-18.21-6.91-4.69-4.61-7.02-10.64-7.02-18.11,0-10.39,4.09-21.55,12.29-33.47,8.19-11.93,23.55-26.59,46.09-44l1.32-8.56c-2.49,3.95-5.74,6.99-9.77,9.11-4.03,2.12-8.01,3.18-11.96,3.18-9.07,0-16.32-3.29-21.73-9.88-5.41-6.58-8.12-15.21-8.12-25.9,0-11.7,2.71-22.79,8.12-33.25,5.41-10.46,12.62-18.87,21.62-25.24,9-6.36,18.54-9.55,28.64-9.55,3.22,0,5.38.62,6.47,1.87,1.1,1.24,2.01,3.48,2.74,6.69,2.78-.58,6-.88,9.66-.88s6.25.55,7.79,1.65c1.54,1.1,2.3,3.26,2.3,6.47,0,1.76-.08,3.15-.22,4.17-.59,4.54-2.41,16.02-5.49,34.46-.59,3.51-1.21,7.35-1.87,11.52-.66,4.17-1.35,8.6-2.08,13.28,11.26-8.78,22.09-16.53,32.48-23.26,1.9-1.17,3.58-1.76,5.05-1.76,1.9,0,3.4.92,4.5,2.74Zm-87.78,111.15c4.61-8.78,9.03-22.75,13.28-41.92-11.27,9.66-19.39,18.36-24.36,26.12-4.98,7.75-7.46,14.56-7.46,20.41,0,2.49.47,4.53,1.43,6.14.95,1.61,2.52,2.42,4.72,2.42,3.66,0,7.79-4.39,12.4-13.17Zm15.47-92.61c3.07-4.09,5.27-9.95,6.58-17.56l7.02-37.53c-6,.15-11.56,2.45-16.68,6.91-5.12,4.46-9.22,10.35-12.29,17.67-3.07,7.32-4.61,15.07-4.61,23.26,0,4.54.91,7.9,2.74,10.1,1.83,2.19,4.35,3.29,7.57,3.29s6.58-2.05,9.66-6.14Z"/>
        <path class="cls-20" d="m680.08,193.44c-7.83-8.12-11.74-18.84-11.74-32.15,0-11.85,2.34-22.24,7.02-31.16,4.68-8.92,10.75-15.8,18.21-20.63,7.46-4.83,15.29-7.24,23.48-7.24s14.3,2.38,18.76,7.13c4.46,4.76,6.69,10.86,6.69,18.33,0,6.14-1.35,11.34-4.06,15.58-2.71,4.24-6.25,6.36-10.64,6.36-2.78,0-5.01-.66-6.69-1.98-1.68-1.32-2.52-3.14-2.52-5.49,0-1.02.14-2.19.44-3.51.29-1.32.51-2.27.66-2.85.73-2.19,1.1-4.24,1.1-6.15s-.48-3.36-1.43-4.39c-.95-1.02-2.3-1.54-4.06-1.54-3.37,0-6.51,1.5-9.44,4.5-2.93,3-5.27,7.06-7.02,12.18-1.76,5.12-2.63,10.75-2.63,16.9,0,8.34,1.72,14.67,5.16,18.98,3.44,4.32,8.3,6.47,14.59,6.47,4.97,0,9.55-1.46,13.72-4.39,4.17-2.92,8.3-7.24,12.4-12.95,1.76-2.2,3.73-3.29,5.93-3.29,1.9,0,3.4.88,4.5,2.63,1.1,1.76,1.65,4.17,1.65,7.24,0,5.27-1.24,9.8-3.73,13.61-3.95,6.14-9.15,11.01-15.58,14.59-6.44,3.59-13.83,5.38-22.16,5.38-13.9,0-24.76-4.06-32.59-12.18Z"/>
      </g>
    </g>
  </g>
</svg>